<svg width="84" height="28" viewBox="0 0 84 28" fill="none" xmlns="http://www.w3.org/2000/svg">
<path d="M36.3999 27.596H29.5953L33.8514 0.491332H40.6556L36.3999 27.596Z" fill="#D98C33"/>
<path d="M61.0671 1.15395C59.7249 0.60553 57.5961 0 54.9639 0C48.2442 0 43.5122 3.69066 43.4832 8.96719C43.4274 12.8602 46.8711 15.0225 49.4468 16.3205C52.0794 17.647 52.9743 18.5127 52.9743 19.695C52.9475 21.5108 50.847 22.3479 48.8879 22.3479C46.1712 22.3479 44.7156 21.9163 42.5034 20.9061L41.6074 20.473L40.6552 26.5574C42.2511 27.3063 45.1915 27.9708 48.2442 28C55.384 28 60.0323 24.3664 60.0873 18.7434C60.1145 15.6579 58.2961 13.2937 54.3756 11.3617C51.9957 10.1215 50.5382 9.28529 50.5382 8.01636C50.5661 6.86279 51.7709 5.68124 54.4575 5.68124C56.6696 5.62337 58.2949 6.17103 59.5262 6.71907L60.1417 7.00689L61.0671 1.15395Z" fill="#D98C33"/>
<path d="M70.111 17.9938C70.6714 16.4367 72.8277 10.4101 72.8277 10.4101C72.7994 10.468 73.3869 8.82425 73.7229 7.81517L74.1985 10.1507C74.1985 10.1507 75.4871 16.6386 75.7669 17.9938C74.7034 17.9938 71.455 17.9938 70.111 17.9938ZM78.5104 0.491332H73.247C71.6239 0.491332 70.3908 0.981121 69.6905 2.74022L59.5832 27.5957H66.723C66.723 27.5957 67.8985 24.2503 68.1511 23.5298C68.9344 23.5298 75.88 23.5298 76.8876 23.5298C77.083 24.4814 77.6996 27.5957 77.6996 27.5957H83.9999L78.5104 0.491332Z" fill="#D98C33"/>
<path d="M23.9118 0.491332L17.2479 18.9741L16.5197 15.2256C15.2877 10.9003 11.4238 6.20093 7.11193 3.86428L13.2158 27.5673H20.4115L31.1071 0.491332H23.9118Z" fill="#D98C33"/>
<path d="M11.0599 0.491332H0.112001L0 1.03899C8.54005 3.28826 14.196 8.71005 16.5197 15.2268L14.1398 2.76973C13.748 1.03861 12.5438 0.548436 11.0599 0.491332Z" fill="#D98C33"/>
</svg>
